# Blender v3.1.2 OBJ File: ''
# www.blender.org
mtllib untitled.mtl
g Plane
v -1.000000 0.024690 1.000000
v 1.000000 0.020000 1.000000
v -1.001859 0.019913 -1.000000
v 1.000000 0.062721 -1.000000
v -0.600487 0.024678 1.000483
v -0.200487 0.019942 1.001447
v 0.200604 0.019938 1.001447
v 0.600604 0.019985 1.000483
v 0.598936 0.062693 -1.000000
v 0.202742 0.019764 -1.001361
v -0.198362 0.057231 -1.001291
v -0.600931 0.057318 -1.000000
v -1.001396 0.019948 -0.499627
v -1.006246 0.018074 -0.005857
v -1.005519 0.023089 0.505568
v 1.007146 0.017137 0.507434
v 1.007274 0.017404 -0.006648
v 1.000000 0.062703 -0.499148
v -0.598080 0.024366 0.503027
v -0.598225 0.019712 -0.002877
v -0.601000 0.057312 -0.499683
v -0.200816 0.068364 0.500701
v -0.200642 0.068382 -0.000189
v -0.199251 0.057320 -0.499522
v 0.200903 0.068360 0.500724
v 0.200871 0.068372 -0.000326
v 0.201645 0.019929 -0.499642
v 0.597345 0.019408 0.504033
v 0.597040 0.019491 -0.003366
v 0.599503 0.062711 -0.499601
v -0.993574 0.043121 0.010739
v -0.993515 0.043414 0.488618
v -0.606485 0.043414 0.488618
v -0.606426 0.043121 0.010739
v 0.175164 0.046623 -0.963349
v -0.166541 0.047317 -0.963272
v -0.166541 0.047317 -0.536728
v 0.175164 0.046623 -0.536651
v 1.000638 0.037165 0.497765
v 1.000638 0.037165 0.002235
v 0.599362 0.037165 0.497765
v 0.599362 0.037165 0.002235
v -1.000000 0.004690 1.000000
v 1.000000 0.000000 1.000000
v -1.000000 0.000000 -1.000000
v 1.000000 0.042721 -1.000000
v -0.600000 0.004690 1.000000
v -0.200000 0.000000 1.000000
v 0.200000 0.000000 1.000000
v 0.600000 0.000000 1.000000
v 0.600000 0.042721 -1.000000
v 0.200000 0.000000 -1.000000
v -0.200000 0.037340 -1.000000
v -0.600000 0.037340 -1.000000
v -1.000000 0.000000 -0.500000
v -1.000000 0.000000 0.000000
v -1.000000 0.004690 0.500000
v 1.000000 0.000000 0.500000
v 1.000000 0.000000 0.000000
v 1.000000 0.042721 -0.500000
v -0.600000 0.004690 0.500000
v -0.600000 0.000000 0.000000
v -0.600000 0.037340 -0.500000
v -0.200000 0.048393 0.500000
v -0.200000 0.048393 0.000000
v -0.200000 0.037340 -0.500000
v 0.200000 0.048393 0.500000
v 0.200000 0.048393 0.000000
v 0.200000 0.000000 -0.500000
v 0.600000 0.000000 0.500000
v 0.600000 0.000000 0.000000
v 0.600000 0.042721 -0.500000
v -0.985554 0.026324 0.018057
v -0.985554 0.026324 0.481943
v -0.614446 0.026324 0.481943
v -0.614446 0.026324 0.018057
v 0.169307 0.027577 -0.961634
v -0.169307 0.027577 -0.961634
v -0.169307 0.027577 -0.538366
v 0.169307 0.027577 -0.538366
v 0.991441 0.021551 0.489301
v 0.991441 0.021551 0.010699
v 0.608559 0.021551 0.489301
v 0.608559 0.021551 0.010699
vt 0.800000 0.750000
vt 1.000000 0.750000
vt 1.000000 1.000000
vt 0.800000 1.000000
vt 0.000000 0.750000
vt 0.200000 0.750000
vt 0.200000 1.000000
vt 0.000000 1.000000
vt 0.400000 0.750000
vt 0.400000 1.000000
vt 0.600000 0.750000
vt 0.600000 0.750000
vt 0.400000 0.750000
vt 0.600000 1.000000
vt 0.600000 0.000000
vt 0.800000 0.000000
vt 0.800000 0.250000
vt 0.600000 0.250000
vt 0.800000 0.500000
vt 0.600000 0.500000
vt 0.400000 0.000000
vt 0.400000 0.250000
vt 0.400000 0.500000
vt 0.200000 0.000000
vt 0.200000 0.250000
vt 0.200000 0.500000
vt 0.000000 0.000000
vt 0.000000 0.250000
vt 0.000000 0.500000
vt 0.000000 0.500000
vt 0.200000 0.500000
vt 1.000000 0.000000
vt 1.000000 0.250000
vt 1.000000 0.250000
vt 0.800000 0.250000
vt 1.000000 0.500000
vt 0.000000 0.250000
vt 0.200000 0.250000
vt 0.000000 0.000000
vt 0.000000 0.000000
vt 0.000000 0.000000
vt 0.000000 0.000000
vt 0.600000 1.000000
vt 0.400000 1.000000
vt 0.000000 0.000000
vt 0.000000 0.000000
vt 0.000000 0.000000
vt 0.000000 0.000000
vt 1.000000 0.500000
vt 0.800000 0.500000
vt 0.000000 0.000000
vt 0.000000 0.000000
vt 0.000000 0.000000
vt 0.000000 0.000000
vt 0.800000 0.750000
vt 0.800000 1.000000
vt 1.000000 1.000000
vt 1.000000 0.750000
vt 0.000000 0.750000
vt 0.000000 1.000000
vt 0.200000 1.000000
vt 0.200000 0.750000
vt 0.400000 1.000000
vt 0.400000 0.750000
vt 0.400000 0.750000
vt 0.600000 0.750000
vt 0.600000 0.750000
vt 0.600000 1.000000
vt 0.600000 0.000000
vt 0.600000 0.250000
vt 0.800000 0.250000
vt 0.800000 0.000000
vt 0.600000 0.500000
vt 0.800000 0.500000
vt 0.400000 0.000000
vt 0.400000 0.250000
vt 0.400000 0.500000
vt 0.200000 0.000000
vt 0.200000 0.250000
vt 0.200000 0.500000
vt 0.000000 0.000000
vt 0.000000 0.250000
vt 0.200000 0.500000
vt 0.000000 0.500000
vt 0.000000 0.500000
vt 1.000000 0.250000
vt 1.000000 0.000000
vt 0.800000 0.250000
vt 1.000000 0.250000
vt 1.000000 0.500000
vt 0.000000 0.250000
vt 0.200000 0.250000
vt 0.000000 0.000000
vt 0.000000 0.000000
vt 0.000000 0.000000
vt 0.000000 0.000000
vt 0.400000 1.000000
vt 0.600000 1.000000
vt 0.000000 0.000000
vt 0.000000 0.000000
vt 0.000000 0.000000
vt 0.000000 0.000000
vt 0.800000 0.500000
vt 1.000000 0.500000
vt 0.000000 0.000000
vt 0.000000 0.000000
vt 0.000000 0.000000
vt 0.000000 0.000000
vn -0.0000 1.0000 0.0000
vn -0.0929 0.9957 0.0000
vn 0.0001 1.0000 -0.0001
vn 0.0499 0.9735 0.2231
vn -0.1073 0.9942 -0.0002
vn 0.0611 0.9970 0.0477
vn 0.1225 0.9925 0.0001
vn 0.0077 1.0000 -0.0052
vn 0.0000 0.9954 0.0963
vn 0.0465 0.9972 -0.0593
vn -0.0490 0.9976 0.0480
vn -0.1158 0.9933 -0.0046
vn -0.0609 0.9978 0.0267
vn -0.0016 1.0000 -0.0019
vn 0.0021 0.5289 -0.8487
vn -0.0483 0.9980 0.0397
vn 0.0028 1.0000 -0.0035
vn -0.0028 0.3884 0.9215
vn 0.0029 0.9960 0.0892
vn 0.0000 1.0000 -0.0006
vn -0.8785 0.4778 -0.0019
vn 0.9313 0.3642 -0.0019
vn 0.0015 0.6229 0.7823
vn 0.0020 1.0000 0.0000
vn 0.2949 0.9555 0.0002
vn 0.7038 0.7104 0.0007
vn 0.0500 0.9742 -0.2199
vn 0.9495 0.3137 0.0002
vn -0.0028 0.3606 -0.9327
vn -0.9926 0.1216 0.0003
vn 0.0000 -1.0000 0.0000
vn 0.0929 -0.9957 0.0000
vn -0.0492 -0.9729 -0.2259
vn 0.1062 -0.9943 0.0000
vn -0.0603 -0.9970 -0.0482
vn -0.1201 -0.9928 0.0000
vn -0.0071 -1.0000 0.0057
vn 0.0000 -0.9953 -0.0963
vn -0.0465 -0.9972 0.0593
vn 0.0487 -0.9976 -0.0483
vn 0.1144 -0.9934 0.0047
vn 0.0604 -0.9978 -0.0262
vn 0.0000 -0.5657 0.8246
vn 0.0466 -0.9982 -0.0373
vn 0.0000 -0.4446 -0.8957
vn 0.0000 -0.9964 -0.0851
vn 0.8566 -0.5160 0.0025
vn -0.8566 -0.5160 0.0025
vn 0.0000 -0.6408 -0.7677
vn -0.3031 -0.9530 0.0000
vn -0.6683 -0.7439 0.0000
vn -0.0492 -0.9729 0.2259
vn -0.9294 -0.3691 0.0000
vn 0.0000 -0.4446 0.8957
vn 0.9294 -0.3691 0.0000
vn -0.9897 -0.1431 0.0057
vn 0.0006 -0.0121 0.9999
vn 1.0000 0.0000 0.0000
vn 0.0000 0.0000 -1.0000
vn -0.0006 -0.0121 0.9999
vn -0.0018 -0.0483 0.9988
vn 0.0000 -0.0724 0.9974
vn 0.0012 -0.0483 0.9988
vn 0.0054 -0.0345 -0.9994
vn -0.0063 -0.0660 -0.9978
vn -0.0016 -0.0323 -0.9995
vn -0.9967 -0.0814 0.0005
vn -0.9802 -0.1977 -0.0052
vn -0.9517 -0.3069 0.0036
vn 0.9817 -0.1904 0.0076
vn 0.9228 -0.3853 0.0000
vn 0.9806 -0.1946 -0.0244
usemtl None
s off
f 30/1/1 18/2/1 4/3/1 9/4/1
f 13/5/2 21/6/2 12/7/2 3/8/2
f 21/6/3 24/9/3 11/10/3 12/7/3
f 24/9/4 27/11/4 38/12/4 37/13/4
f 27/11/5 30/1/5 9/4/5 10/14/5
f 7/15/6 8/16/6 28/17/6 25/18/6
f 25/18/7 28/17/7 29/19/7 26/20/7
f 26/20/8 29/19/8 30/1/8 27/11/8
f 6/21/9 7/15/9 25/18/9 22/22/9
f 22/22/1 25/18/1 26/20/1 23/23/1
f 23/23/10 26/20/10 27/11/10 24/9/10
f 5/24/11 6/21/11 22/22/11 19/25/11
f 19/25/12 22/22/12 23/23/12 20/26/12
f 20/26/13 23/23/13 24/9/13 21/6/13
f 1/27/14 5/24/14 19/25/14 15/28/14
f 20/26/15 14/29/15 31/30/15 34/31/15
f 14/29/16 20/26/16 21/6/16 13/5/16
f 8/16/17 2/32/17 16/33/17 28/17/17
f 28/17/18 16/33/18 39/34/18 41/35/18
f 29/19/19 17/36/19 18/2/19 30/1/19
f 32/37/20 33/38/20 34/31/20 31/30/20
f 14/39/21 15/40/21 32/41/21 31/42/21
f 19/25/22 20/26/22 34/31/22 33/38/22
f 15/28/23 19/25/23 33/38/23 32/37/23
f 37/13/24 38/12/24 35/43/24 36/44/24
f 11/10/25 24/9/25 37/13/25 36/44/25
f 27/11/26 10/14/26 35/43/26 38/12/26
f 10/45/27 11/46/27 36/47/27 35/48/27
f 41/35/1 39/34/1 40/49/1 42/50/1
f 16/51/28 17/52/28 40/53/28 39/54/28
f 17/36/29 29/19/29 42/50/29 40/49/29
f 29/19/30 28/17/30 41/35/30 42/50/30
f 72/55/31 51/56/31 46/57/31 60/58/31
f 55/59/32 45/60/32 54/61/32 63/62/32
f 63/62/31 54/61/31 53/63/31 66/64/31
f 66/64/33 79/65/33 80/66/33 69/67/33
f 69/67/34 52/68/34 51/56/34 72/55/34
f 49/69/35 67/70/35 70/71/35 50/72/35
f 67/70/36 68/73/36 71/74/36 70/71/36
f 68/73/37 69/67/37 72/55/37 71/74/37
f 48/75/38 64/76/38 67/70/38 49/69/38
f 64/76/31 65/77/31 68/73/31 67/70/31
f 65/77/39 66/64/39 69/67/39 68/73/39
f 47/78/40 61/79/40 64/76/40 48/75/40
f 61/79/41 62/80/41 65/77/41 64/76/41
f 62/80/42 63/62/42 66/64/42 65/77/42
f 43/81/31 57/82/31 61/79/31 47/78/31
f 62/80/43 76/83/43 73/84/43 56/85/43
f 56/85/44 55/59/44 63/62/44 62/80/44
f 50/72/31 70/71/31 58/86/31 44/87/31
f 70/71/45 83/88/45 81/89/45 58/86/45
f 71/74/46 72/55/46 60/58/46 59/90/46
f 74/91/31 73/84/31 76/83/31 75/92/31
f 56/93/47 73/94/47 74/95/47 57/96/47
f 61/79/48 75/92/48 76/83/48 62/80/48
f 57/82/49 74/91/49 75/92/49 61/79/49
f 79/65/31 78/97/31 77/98/31 80/66/31
f 53/63/50 78/97/50 79/65/50 66/64/50
f 69/67/51 80/66/51 77/98/51 52/68/51
f 52/99/52 77/100/52 78/101/52 53/102/52
f 83/88/31 84/103/31 82/104/31 81/89/31
f 58/105/53 81/106/53 82/107/53 59/108/53
f 59/90/54 82/104/54 84/103/54 71/74/54
f 71/74/55 84/103/55 83/88/55 70/71/55
f 1/27/56 15/28/56 57/82/56 43/81/56
f 2/32/57 8/16/57 50/72/57 44/87/57
f 4/3/58 18/2/58 60/58/58 46/57/58
f 3/8/59 12/7/59 54/61/59 45/60/59
f 5/24/60 1/27/60 43/81/60 47/78/60
f 6/21/61 5/24/61 47/78/61 48/75/61
f 7/15/62 6/21/62 48/75/62 49/69/62
f 8/16/63 7/15/63 49/69/63 50/72/63
f 9/4/59 4/3/59 46/57/59 51/56/59
f 10/14/64 9/4/64 51/56/64 52/68/64
f 11/46/65 10/45/65 52/99/65 53/102/65
f 12/7/66 11/10/66 53/63/66 54/61/66
f 13/5/67 3/8/67 45/60/67 55/59/67
f 14/29/68 13/5/68 55/59/68 56/85/68
f 15/40/69 14/39/69 56/93/69 57/96/69
f 16/33/70 2/32/70 44/87/70 58/86/70
f 17/52/71 16/51/71 58/105/71 59/108/71
f 18/2/72 17/36/72 59/90/72 60/58/72
g Plane.002
v -0.414960 0.256311 0.763102
v -0.324336 0.214893 0.866809
v 1.085273 0.099146 -0.550845
v 1.121561 0.082562 -0.509319
v 0.773136 0.153721 -0.402917
v 0.494032 0.193199 -0.217188
v 0.246212 0.218378 0.004344
v 0.017060 0.235027 0.247236
v -0.205228 0.248538 0.497985
v -0.043047 0.174417 0.683580
v 0.225687 0.139679 0.485983
v 0.487556 0.108078 0.280530
v 0.730759 0.085008 0.053715
v 0.942676 0.076237 -0.208901
v -0.422336 0.227664 0.758107
v -0.331712 0.186246 0.861814
v 1.077897 0.070499 -0.555841
v 1.114185 0.053915 -0.514314
v 0.765760 0.125074 -0.407912
v 0.486656 0.164552 -0.222183
v 0.238836 0.189731 -0.000652
v 0.009684 0.206380 0.242241
v -0.212604 0.219891 0.492990
v -0.050423 0.145770 0.678585
v 0.218311 0.111032 0.480988
v 0.480180 0.079431 0.275535
v 0.723383 0.056361 0.048720
v 0.935300 0.047590 -0.213896
v -0.680734 0.181586 0.718817
v -0.566286 0.149968 0.799967
v 0.499127 0.113645 -0.895237
v 0.544955 0.100984 -0.862743
v 0.224061 0.146633 -0.681834
v -0.009289 0.168097 -0.438852
v -0.203130 0.178646 -0.167856
v -0.373396 0.182683 0.119856
v -0.534993 0.184325 0.413715
v -0.330176 0.127742 0.558941
v -0.109923 0.109896 0.306673
v 0.101661 0.094445 0.048257
v 0.289671 0.085506 -0.226873
v 0.438171 0.087483 -0.530019
v -0.686632 0.152333 0.715737
v -0.572183 0.120715 0.796887
v 0.493230 0.084392 -0.898317
v 0.539057 0.071731 -0.865823
v 0.218163 0.117380 -0.684914
v -0.015187 0.138844 -0.441932
v -0.209027 0.149393 -0.170936
v -0.379294 0.153430 0.116776
v -0.540891 0.155072 0.410635
v -0.336074 0.098489 0.555861
v -0.115821 0.080643 0.303593
v 0.095763 0.065192 0.045177
v 0.283773 0.056254 -0.229953
v 0.432273 0.058230 -0.533099
vt 0.000000 0.833333
vt 1.000000 0.833333
vt 1.000000 1.000000
vt 0.000000 1.000000
vt 0.000000 0.000000
vt 1.000000 0.000000
vt 1.000000 0.166667
vt 0.000000 0.166667
vt 1.000000 0.333333
vt 0.000000 0.333333
vt 1.000000 0.500000
vt 0.000000 0.500000
vt 1.000000 0.666667
vt 0.000000 0.666667
vt 0.000000 0.833333
vt 0.000000 1.000000
vt 1.000000 1.000000
vt 1.000000 0.833333
vt 0.000000 0.000000
vt 0.000000 0.166667
vt 1.000000 0.166667
vt 1.000000 0.000000
vt 0.000000 0.333333
vt 1.000000 0.333333
vt 0.000000 0.500000
vt 1.000000 0.500000
vt 0.000000 0.666667
vt 1.000000 0.666667
vt 0.000000 0.833333
vt 1.000000 0.833333
vt 1.000000 1.000000
vt 0.000000 1.000000
vt 0.000000 0.000000
vt 1.000000 0.000000
vt 1.000000 0.166667
vt 0.000000 0.166667
vt 1.000000 0.333333
vt 0.000000 0.333333
vt 1.000000 0.500000
vt 0.000000 0.500000
vt 1.000000 0.666667
vt 0.000000 0.666667
vt 0.000000 0.833333
vt 0.000000 1.000000
vt 1.000000 1.000000
vt 1.000000 0.833333
vt 0.000000 0.000000
vt 0.000000 0.166667
vt 1.000000 0.166667
vt 1.000000 0.000000
vt 0.000000 0.333333
vt 1.000000 0.333333
vt 0.000000 0.500000
vt 1.000000 0.500000
vt 0.000000 0.666667
vt 1.000000 0.666667
vn 0.2459 0.9549 0.1665
vn -0.2459 -0.9549 -0.1665
vn -0.7449 0.2961 -0.5979
vn -0.7365 0.0724 0.6725
vn 0.8233 -0.2964 0.4840
vn 0.7365 -0.0724 -0.6725
vn -0.3779 0.2526 -0.8907
vn -0.5059 0.2729 -0.8183
vn -0.6220 0.2872 -0.7285
vn -0.6854 0.2927 -0.6667
vn -0.7073 0.2942 -0.6428
vn 0.4975 -0.2717 0.8238
vn 0.5454 -0.2783 0.7906
vn 0.5710 -0.2815 0.7711
vn 0.6382 -0.2888 0.7137
vn 0.7385 -0.2958 0.6058
vn 0.1966 0.9751 0.1027
vn -0.1966 -0.9751 -0.1027
vn -0.8807 0.2216 -0.4187
vn -0.5728 0.0292 0.8192
vn 0.9317 -0.2184 0.2902
vn 0.5728 -0.0292 -0.8192
vn -0.5854 0.2007 -0.7855
vn -0.6953 0.2125 -0.6866
vn -0.7894 0.2195 -0.5732
vn -0.8379 0.2215 -0.4989
vn -0.8539 0.2217 -0.4708
vn 0.6883 -0.2118 0.6938
vn 0.7280 -0.2153 0.6509
vn 0.7489 -0.2169 0.6262
vn 0.8020 -0.2202 0.5552
vn 0.8763 -0.2217 0.4278
usemtl None
s off
f 89/109/73 98/110/73 88/111/73 87/112/73
f 85/113/73 86/114/73 94/115/73 93/116/73
f 93/116/73 94/115/73 95/117/73 92/118/73
f 92/118/73 95/117/73 96/119/73 91/120/73
f 91/120/73 96/119/73 97/121/73 90/122/73
f 90/122/73 97/121/73 98/110/73 89/109/73
f 103/123/74 101/124/74 102/125/74 112/126/74
f 99/127/74 107/128/74 108/129/74 100/130/74
f 107/128/74 106/131/74 109/132/74 108/129/74
f 106/131/74 105/133/74 110/134/74 109/132/74
f 105/133/74 104/135/74 111/136/74 110/134/74
f 104/135/74 103/123/74 112/126/74 111/136/74
f 85/113/75 93/116/75 107/128/75 99/127/75
f 86/114/76 85/113/76 99/127/76 100/130/76
f 88/111/77 98/110/77 112/126/77 102/125/77
f 87/112/78 88/111/78 102/125/78 101/124/78
f 89/109/79 87/112/79 101/124/79 103/123/79
f 90/122/80 89/109/80 103/123/80 104/135/80
f 91/120/81 90/122/81 104/135/81 105/133/81
f 92/118/82 91/120/82 105/133/82 106/131/82
f 93/116/83 92/118/83 106/131/83 107/128/83
f 94/115/84 86/114/84 100/130/84 108/129/84
f 95/117/85 94/115/85 108/129/85 109/132/85
f 96/119/86 95/117/86 109/132/86 110/134/86
f 97/121/87 96/119/87 110/134/87 111/136/87
f 98/110/88 97/121/88 111/136/88 112/126/88
f 117/137/89 126/138/89 116/139/89 115/140/89
f 113/141/89 114/142/89 122/143/89 121/144/89
f 121/144/89 122/143/89 123/145/89 120/146/89
f 120/146/89 123/145/89 124/147/89 119/148/89
f 119/148/89 124/147/89 125/149/89 118/150/89
f 118/150/89 125/149/89 126/138/89 117/137/89
f 131/151/90 129/152/90 130/153/90 140/154/90
f 127/155/90 135/156/90 136/157/90 128/158/90
f 135/156/90 134/159/90 137/160/90 136/157/90
f 134/159/90 133/161/90 138/162/90 137/160/90
f 133/161/90 132/163/90 139/164/90 138/162/90
f 132/163/90 131/151/90 140/154/90 139/164/90
f 113/141/91 121/144/91 135/156/91 127/155/91
f 114/142/92 113/141/92 127/155/92 128/158/92
f 116/139/93 126/138/93 140/154/93 130/153/93
f 115/140/94 116/139/94 130/153/94 129/152/94
f 117/137/95 115/140/95 129/152/95 131/151/95
f 118/150/96 117/137/96 131/151/96 132/163/96
f 119/148/97 118/150/97 132/163/97 133/161/97
f 120/146/98 119/148/98 133/161/98 134/159/98
f 121/144/99 120/146/99 134/159/99 135/156/99
f 122/143/100 114/142/100 128/158/100 136/157/100
f 123/145/101 122/143/101 136/157/101 137/160/101
f 124/147/102 123/145/102 137/160/102 138/162/102
f 125/149/103 124/147/103 138/162/103 139/164/103
f 126/138/104 125/149/104 139/164/104 140/154/104
