# Blender v3.1.2 OBJ File: ''
# www.blender.org
mtllib untitled12.mtl
g Plane.001_Plane.004
v -1.000000 0.050000 1.000000
v 1.000000 0.050000 1.000000
v -1.000000 0.050000 -1.000000
v 1.000000 0.050000 -1.000000
v -1.000000 0.000000 1.000000
v 1.000000 0.000000 1.000000
v -1.000000 0.000000 -1.000000
v 1.000000 0.000000 -1.000000
vt 0.000000 0.000000
vt 1.000000 0.000000
vt 1.000000 1.000000
vt 0.000000 1.000000
vt 0.000000 0.000000
vt 0.000000 1.000000
vt 1.000000 1.000000
vt 1.000000 0.000000
vn 0.0000 1.0000 0.0000
vn 0.0000 -1.0000 0.0000
vn -1.0000 0.0000 0.0000
vn 0.0000 0.0000 1.0000
vn 1.0000 0.0000 0.0000
vn 0.0000 0.0000 -1.0000
usemtl None
s off
f 1/1/1 2/2/1 4/3/1 3/4/1
f 5/5/2 7/6/2 8/7/2 6/8/2
f 1/1/3 3/4/3 7/6/3 5/5/3
f 2/2/4 1/1/4 5/5/4 6/8/4
f 4/3/5 2/2/5 6/8/5 8/7/5
f 3/4/6 4/3/6 8/7/6 7/6/6
g Plane.004_Plane.007
v -0.807676 0.296769 -0.562780
v -0.840026 0.296769 -0.355236
v 1.170931 0.141576 -0.188026
v 1.158626 0.138069 -0.109082
v 0.852534 0.228412 -0.337320
v 0.524879 0.263579 -0.429854
v 0.199175 0.281051 -0.513217
v -0.130885 0.296754 -0.568107
v -0.469314 0.296769 -0.569216
v -0.519675 0.296769 -0.246124
v -0.196963 0.296754 -0.144180
v 0.134144 0.281051 -0.096012
v 0.469769 0.263579 -0.076293
v 0.809980 0.228411 -0.064306
v -0.807676 0.246769 -0.562780
v -0.840026 0.246769 -0.355236
v 1.158439 0.093222 -0.190455
v 1.146134 0.089715 -0.111511
v 0.844208 0.179133 -0.338827
v 0.521129 0.213723 -0.430438
v 0.196733 0.231112 -0.513597
v -0.132099 0.246769 -0.568296
v -0.469314 0.246769 -0.569216
v -0.519675 0.246769 -0.246124
v -0.198178 0.246769 -0.144369
v 0.131703 0.231112 -0.096393
v 0.466019 0.213723 -0.076877
v 0.801653 0.179133 -0.065814
v 0.511370 0.212828 0.896344
v 0.721420 0.212828 0.896344
v 0.576922 0.057635 -1.116372
v 0.656820 0.054127 -1.116372
v 0.478447 0.144470 -0.778781
v 0.437480 0.179637 -0.440784
v 0.405274 0.197110 -0.106127
v 0.401872 0.212813 0.228449
v 0.452898 0.212828 0.563011
v 0.779892 0.212828 0.563011
v 0.830918 0.212813 0.228449
v 0.827516 0.197110 -0.106127
v 0.795310 0.179637 -0.440784
v 0.754757 0.144470 -0.778782
v 0.511370 0.162828 0.896344
v 0.721420 0.162828 0.896344
v 0.576446 0.009281 -1.103656
v 0.656344 0.005774 -1.103656
v 0.478240 0.095191 -0.770322
v 0.437480 0.129782 -0.436989
v 0.405274 0.147171 -0.103656
v 0.401872 0.162828 0.229678
v 0.452898 0.162828 0.563011
v 0.779892 0.162828 0.563011
v 0.830918 0.162828 0.229678
v 0.827516 0.147171 -0.103656
v 0.795310 0.129782 -0.436989
v 0.754550 0.095191 -0.770322
v -0.087930 0.212828 0.896344
v 0.122121 0.212828 0.896344
v -0.022377 0.057635 -1.116372
v 0.057520 0.054127 -1.116372
v -0.120852 0.144470 -0.778781
v -0.161820 0.179637 -0.440784
v -0.194026 0.197110 -0.106127
v -0.197427 0.212813 0.228449
v -0.146401 0.212828 0.563011
v 0.180592 0.212828 0.563011
v 0.231619 0.212813 0.228449
v 0.228217 0.197110 -0.106127
v 0.196011 0.179637 -0.440784
v 0.155457 0.144470 -0.778782
v -0.087930 0.162828 0.896344
v 0.122121 0.162828 0.896344
v -0.022853 0.009281 -1.103656
v 0.057044 0.005774 -1.103656
v -0.121059 0.095191 -0.770322
v -0.161820 0.129782 -0.436989
v -0.194026 0.147171 -0.103656
v -0.197428 0.162828 0.229678
v -0.146401 0.162828 0.563011
v 0.180592 0.162828 0.563011
v 0.231619 0.162828 0.229678
v 0.228217 0.147171 -0.103656
v 0.196011 0.129782 -0.436989
v 0.155250 0.095191 -0.770322
v -0.688116 0.212828 0.896344
v -0.478066 0.212828 0.896344
v -0.622564 0.057635 -1.116372
v -0.542666 0.054127 -1.116372
v -0.721039 0.144470 -0.778781
v -0.762006 0.179637 -0.440784
v -0.794212 0.197110 -0.106127
v -0.797614 0.212813 0.228449
v -0.746588 0.212828 0.563011
v -0.419594 0.212828 0.563011
v -0.368568 0.212813 0.228449
v -0.371970 0.197110 -0.106127
v -0.404176 0.179637 -0.440784
v -0.444729 0.144470 -0.778782
v -0.688116 0.162828 0.896344
v -0.478066 0.162828 0.896344
v -0.623040 0.009281 -1.103656
v -0.543142 0.005774 -1.103656
v -0.721246 0.095191 -0.770322
v -0.762006 0.129782 -0.436989
v -0.794212 0.147171 -0.103656
v -0.797614 0.162828 0.229678
v -0.746588 0.162828 0.563011
v -0.419594 0.162828 0.563011
v -0.368568 0.162828 0.229678
v -0.371970 0.147171 -0.103656
v -0.404176 0.129782 -0.436989
v -0.444936 0.095191 -0.770322
v -0.807676 0.296769 0.053897
v -0.840026 0.296769 0.261441
v 1.170931 0.141576 0.428651
v 1.158626 0.138069 0.507595
v 0.852534 0.228412 0.279357
v 0.524879 0.263579 0.186823
v 0.199175 0.281051 0.103460
v -0.130885 0.296754 0.048570
v -0.469314 0.296769 0.047461
v -0.519675 0.296769 0.370553
v -0.196963 0.296754 0.472497
v 0.134144 0.281051 0.520665
v 0.469769 0.263579 0.540384
v 0.809980 0.228411 0.552371
v -0.807676 0.246769 0.053897
v -0.840026 0.246769 0.261441
v 1.158440 0.093222 0.426222
v 1.146134 0.089715 0.505166
v 0.844208 0.179133 0.277850
v 0.521129 0.213723 0.186239
v 0.196733 0.231112 0.103079
v -0.132099 0.246769 0.048381
v -0.469314 0.246769 0.047461
v -0.519675 0.246769 0.370553
v -0.198178 0.246769 0.472308
v 0.131703 0.231112 0.520284
v 0.466019 0.213723 0.539800
v 0.801653 0.179133 0.550863
vt 0.000000 0.833333
vt 1.000000 0.833333
vt 1.000000 1.000000
vt 0.000000 1.000000
vt 0.000000 0.000000
vt 1.000000 0.000000
vt 1.000000 0.166667
vt 0.000000 0.166667
vt 1.000000 0.333333
vt 0.000000 0.333333
vt 1.000000 0.500000
vt 0.000000 0.500000
vt 1.000000 0.666667
vt 0.000000 0.666667
vt 0.000000 0.833333
vt 0.000000 1.000000
vt 1.000000 1.000000
vt 1.000000 0.833333
vt 0.000000 0.000000
vt 0.000000 0.166667
vt 1.000000 0.166667
vt 1.000000 0.000000
vt 0.000000 0.333333
vt 1.000000 0.333333
vt 0.000000 0.500000
vt 1.000000 0.500000
vt 0.000000 0.666667
vt 1.000000 0.666667
vt 0.000000 0.833333
vt 1.000000 0.833333
vt 1.000000 1.000000
vt 0.000000 1.000000
vt 0.000000 0.000000
vt 1.000000 0.000000
vt 1.000000 0.166667
vt 0.000000 0.166667
vt 1.000000 0.333333
vt 0.000000 0.333333
vt 1.000000 0.500000
vt 0.000000 0.500000
vt 1.000000 0.666667
vt 0.000000 0.666667
vt 0.000000 0.833333
vt 0.000000 1.000000
vt 1.000000 1.000000
vt 1.000000 0.833333
vt 0.000000 0.000000
vt 0.000000 0.166667
vt 1.000000 0.166667
vt 1.000000 0.000000
vt 0.000000 0.333333
vt 1.000000 0.333333
vt 0.000000 0.500000
vt 1.000000 0.500000
vt 0.000000 0.666667
vt 1.000000 0.666667
vt 0.000000 0.833333
vt 1.000000 0.833333
vt 1.000000 1.000000
vt 0.000000 1.000000
vt 0.000000 0.000000
vt 1.000000 0.000000
vt 1.000000 0.166667
vt 0.000000 0.166667
vt 1.000000 0.333333
vt 0.000000 0.333333
vt 1.000000 0.500000
vt 0.000000 0.500000
vt 1.000000 0.666667
vt 0.000000 0.666667
vt 0.000000 0.833333
vt 0.000000 1.000000
vt 1.000000 1.000000
vt 1.000000 0.833333
vt 0.000000 0.000000
vt 0.000000 0.166667
vt 1.000000 0.166667
vt 1.000000 0.000000
vt 0.000000 0.333333
vt 1.000000 0.333333
vt 0.000000 0.500000
vt 1.000000 0.500000
vt 0.000000 0.666667
vt 1.000000 0.666667
vt 0.000000 0.833333
vt 1.000000 0.833333
vt 1.000000 1.000000
vt 0.000000 1.000000
vt 0.000000 0.000000
vt 1.000000 0.000000
vt 1.000000 0.166667
vt 0.000000 0.166667
vt 1.000000 0.333333
vt 0.000000 0.333333
vt 1.000000 0.500000
vt 0.000000 0.500000
vt 1.000000 0.666667
vt 0.000000 0.666667
vt 0.000000 0.833333
vt 0.000000 1.000000
vt 1.000000 1.000000
vt 1.000000 0.833333
vt 0.000000 0.000000
vt 0.000000 0.166667
vt 1.000000 0.166667
vt 1.000000 0.000000
vt 0.000000 0.333333
vt 1.000000 0.333333
vt 0.000000 0.500000
vt 1.000000 0.500000
vt 0.000000 0.666667
vt 1.000000 0.666667
vt 0.000000 0.833333
vt 1.000000 0.833333
vt 1.000000 1.000000
vt 0.000000 1.000000
vt 0.000000 0.000000
vt 1.000000 0.000000
vt 1.000000 0.166667
vt 0.000000 0.166667
vt 1.000000 0.333333
vt 0.000000 0.333333
vt 1.000000 0.500000
vt 0.000000 0.500000
vt 1.000000 0.666667
vt 0.000000 0.666667
vt 0.000000 0.833333
vt 0.000000 1.000000
vt 1.000000 1.000000
vt 1.000000 0.833333
vt 0.000000 0.000000
vt 0.000000 0.166667
vt 1.000000 0.166667
vt 1.000000 0.000000
vt 0.000000 0.333333
vt 1.000000 0.333333
vt 0.000000 0.500000
vt 1.000000 0.500000
vt 0.000000 0.666667
vt 1.000000 0.666667
vn 0.2493 0.9672 0.0485
vn 0.0000 1.0000 -0.0000
vn 0.0463 0.9989 0.0072
vn 0.0515 0.9986 0.0080
vn 0.1023 0.9946 0.0159
vn -0.2498 -0.9671 -0.0486
vn 0.0000 -1.0000 -0.0000
vn -0.0464 -0.9989 -0.0072
vn -0.0515 -0.9986 -0.0080
vn -0.1020 -0.9947 -0.0159
vn -0.0190 0.0000 -0.9998
vn -0.9881 0.0000 -0.1540
vn 0.1128 -0.0640 0.9916
vn 0.9573 -0.2542 0.1379
vn 0.4136 -0.0515 -0.9090
vn 0.2710 -0.0127 -0.9625
vn 0.2478 -0.0060 -0.9688
vn 0.1641 -0.0004 -0.9865
vn 0.0030 0.0019 -1.0000
vn -0.3224 0.0000 0.9466
vn -0.3015 0.0019 0.9535
vn -0.1440 -0.0004 0.9896
vn -0.0588 -0.0060 0.9983
vn -0.0358 -0.0167 0.9992
vn 0.0095 0.9672 -0.2538
vn -0.0000 0.9989 -0.0469
vn 0.0000 0.9986 -0.0521
vn 0.0000 0.9946 -0.1035
vn -0.0095 -0.9671 0.2543
vn 0.0000 -0.9989 0.0469
vn 0.0000 -0.9986 0.0521
vn -0.0000 -0.9947 0.1032
vn -0.9850 0.0000 0.1728
vn 0.0000 0.0000 1.0000
vn 0.9623 -0.0640 -0.2642
vn -0.0112 -0.2542 -0.9671
vn -0.9618 -0.0515 -0.2687
vn -0.9927 -0.0127 -0.1195
vn -0.9954 -0.0060 -0.0957
vn -0.9999 -0.0004 -0.0102
vn -0.9885 0.0019 0.1510
vn 0.9850 0.0000 0.1728
vn 0.9885 0.0019 0.1510
vn 0.9999 -0.0004 -0.0102
vn 0.9954 -0.0060 -0.0957
vn 0.9928 -0.0167 -0.1185
usemtl None
s off
f 13/9/7 22/10/7 12/11/7 11/12/7
f 9/13/8 10/14/8 18/15/8 17/16/8
f 17/16/8 18/15/8 19/17/8 16/18/8
f 16/18/9 19/17/9 20/19/9 15/20/9
f 15/20/10 20/19/10 21/21/10 14/22/10
f 14/22/11 21/21/11 22/10/11 13/9/11
f 27/23/12 25/24/12 26/25/12 36/26/12
f 23/27/13 31/28/13 32/29/13 24/30/13
f 31/28/13 30/31/13 33/32/13 32/29/13
f 30/31/14 29/33/14 34/34/14 33/32/14
f 29/33/15 28/35/15 35/36/15 34/34/15
f 28/35/16 27/23/16 36/26/16 35/36/16
f 9/13/17 17/16/17 31/28/17 23/27/17
f 10/14/18 9/13/18 23/27/18 24/30/18
f 12/11/19 22/10/19 36/26/19 26/25/19
f 11/12/20 12/11/20 26/25/20 25/24/20
f 13/9/21 11/12/21 25/24/21 27/23/21
f 14/22/22 13/9/22 27/23/22 28/35/22
f 15/20/23 14/22/23 28/35/23 29/33/23
f 16/18/24 15/20/24 29/33/24 30/31/24
f 17/16/25 16/18/25 30/31/25 31/28/25
f 18/15/26 10/14/26 24/30/26 32/29/26
f 19/17/27 18/15/27 32/29/27 33/32/27
f 20/19/28 19/17/28 33/32/28 34/34/28
f 21/21/29 20/19/29 34/34/29 35/36/29
f 22/10/30 21/21/30 35/36/30 36/26/30
f 41/37/31 50/38/31 40/39/31 39/40/31
f 37/41/8 38/42/8 46/43/8 45/44/8
f 45/44/8 46/43/8 47/45/8 44/46/8
f 44/46/32 47/45/32 48/47/32 43/48/32
f 43/48/33 48/47/33 49/49/33 42/50/33
f 42/50/34 49/49/34 50/38/34 41/37/34
f 55/51/35 53/52/35 54/53/35 64/54/35
f 51/55/13 59/56/13 60/57/13 52/58/13
f 59/56/13 58/59/13 61/60/13 60/57/13
f 58/59/36 57/61/36 62/62/36 61/60/36
f 57/61/37 56/63/37 63/64/37 62/62/37
f 56/63/38 55/51/38 64/54/38 63/64/38
f 37/41/39 45/44/39 59/56/39 51/55/39
f 38/42/40 37/41/40 51/55/40 52/58/40
f 40/39/41 50/38/41 64/54/41 54/53/41
f 39/40/42 40/39/42 54/53/42 53/52/42
f 41/37/43 39/40/43 53/52/43 55/51/43
f 42/50/44 41/37/44 55/51/44 56/63/44
f 43/48/45 42/50/45 56/63/45 57/61/45
f 44/46/46 43/48/46 57/61/46 58/59/46
f 45/44/47 44/46/47 58/59/47 59/56/47
f 46/43/48 38/42/48 52/58/48 60/57/48
f 47/45/49 46/43/49 60/57/49 61/60/49
f 48/47/50 47/45/50 61/60/50 62/62/50
f 49/49/51 48/47/51 62/62/51 63/64/51
f 50/38/52 49/49/52 63/64/52 64/54/52
f 69/65/31 78/66/31 68/67/31 67/68/31
f 65/69/8 66/70/8 74/71/8 73/72/8
f 73/72/8 74/71/8 75/73/8 72/74/8
f 72/74/32 75/73/32 76/75/32 71/76/32
f 71/76/33 76/75/33 77/77/33 70/78/33
f 70/78/34 77/77/34 78/66/34 69/65/34
f 83/79/35 81/80/35 82/81/35 92/82/35
f 79/83/13 87/84/13 88/85/13 80/86/13
f 87/84/13 86/87/13 89/88/13 88/85/13
f 86/87/36 85/89/36 90/90/36 89/88/36
f 85/89/37 84/91/37 91/92/37 90/90/37
f 84/91/38 83/79/38 92/82/38 91/92/38
f 65/69/39 73/72/39 87/84/39 79/83/39
f 66/70/40 65/69/40 79/83/40 80/86/40
f 68/67/41 78/66/41 92/82/41 82/81/41
f 67/68/42 68/67/42 82/81/42 81/80/42
f 69/65/43 67/68/43 81/80/43 83/79/43
f 70/78/44 69/65/44 83/79/44 84/91/44
f 71/76/45 70/78/45 84/91/45 85/89/45
f 72/74/46 71/76/46 85/89/46 86/87/46
f 73/72/47 72/74/47 86/87/47 87/84/47
f 74/71/48 66/70/48 80/86/48 88/85/48
f 75/73/49 74/71/49 88/85/49 89/88/49
f 76/75/50 75/73/50 89/88/50 90/90/50
f 77/77/51 76/75/51 90/90/51 91/92/51
f 78/66/52 77/77/52 91/92/52 92/82/52
f 97/93/31 106/94/31 96/95/31 95/96/31
f 93/97/8 94/98/8 102/99/8 101/100/8
f 101/100/8 102/99/8 103/101/8 100/102/8
f 100/102/32 103/101/32 104/103/32 99/104/32
f 99/104/33 104/103/33 105/105/33 98/106/33
f 98/106/34 105/105/34 106/94/34 97/93/34
f 111/107/35 109/108/35 110/109/35 120/110/35
f 107/111/13 115/112/13 116/113/13 108/114/13
f 115/112/13 114/115/13 117/116/13 116/113/13
f 114/115/36 113/117/36 118/118/36 117/116/36
f 113/117/37 112/119/37 119/120/37 118/118/37
f 112/119/38 111/107/38 120/110/38 119/120/38
f 93/97/39 101/100/39 115/112/39 107/111/39
f 94/98/40 93/97/40 107/111/40 108/114/40
f 96/95/41 106/94/41 120/110/41 110/109/41
f 95/96/42 96/95/42 110/109/42 109/108/42
f 97/93/43 95/96/43 109/108/43 111/107/43
f 98/106/44 97/93/44 111/107/44 112/119/44
f 99/104/45 98/106/45 112/119/45 113/117/45
f 100/102/46 99/104/46 113/117/46 114/115/46
f 101/100/47 100/102/47 114/115/47 115/112/47
f 102/99/48 94/98/48 108/114/48 116/113/48
f 103/101/49 102/99/49 116/113/49 117/116/49
f 104/103/50 103/101/50 117/116/50 118/118/50
f 105/105/51 104/103/51 118/118/51 119/120/51
f 106/94/52 105/105/52 119/120/52 120/110/52
f 125/121/7 134/122/7 124/123/7 123/124/7
f 121/125/8 122/126/8 130/127/8 129/128/8
f 129/128/8 130/127/8 131/129/8 128/130/8
f 128/130/9 131/129/9 132/131/9 127/132/9
f 127/132/10 132/131/10 133/133/10 126/134/10
f 126/134/11 133/133/11 134/122/11 125/121/11
f 139/135/12 137/136/12 138/137/12 148/138/12
f 135/139/13 143/140/13 144/141/13 136/142/13
f 143/140/13 142/143/13 145/144/13 144/141/13
f 142/143/14 141/145/14 146/146/14 145/144/14
f 141/145/15 140/147/15 147/148/15 146/146/15
f 140/147/16 139/135/16 148/138/16 147/148/16
f 121/125/17 129/128/17 143/140/17 135/139/17
f 122/126/18 121/125/18 135/139/18 136/142/18
f 124/123/19 134/122/19 148/138/19 138/137/19
f 123/124/20 124/123/20 138/137/20 137/136/20
f 125/121/21 123/124/21 137/136/21 139/135/21
f 126/134/22 125/121/22 139/135/22 140/147/22
f 127/132/23 126/134/23 140/147/23 141/145/23
f 128/130/24 127/132/24 141/145/24 142/143/24
f 129/128/25 128/130/25 142/143/25 143/140/25
f 130/127/26 122/126/26 136/142/26 144/141/26
f 131/129/27 130/127/27 144/141/27 145/144/27
f 132/131/28 131/129/28 145/144/28 146/146/28
f 133/133/29 132/131/29 146/146/29 147/148/29
f 134/122/30 133/133/30 147/148/30 148/138/30
