# Blender v3.1.2 OBJ File: ''
# www.blender.org
mtllib untitled.mtl
g Plane
v -8.333333 0.000000 10.000000
v -6.666666 0.000000 10.000000
v -3.333333 0.000000 10.000000
v -1.666666 0.000000 10.000000
v 1.666667 0.000000 10.000000
v 3.333334 0.000000 10.000000
v 6.666667 0.000000 10.000000
v 8.333334 0.000000 10.000000
v 8.333333 0.000000 -10.000000
v 6.860843 0.000000 -10.000000
v 3.333333 0.000000 -10.000000
v 1.666666 0.000000 -10.000000
v -1.666667 0.000000 -10.000000
v -3.333334 0.000000 -10.000000
v -6.666667 0.000000 -10.000000
v -8.333334 0.000000 -10.000000
v -8.333333 0.000000 6.666666
v -8.333333 0.000000 3.333333
v -8.333333 0.000000 -0.000000
v -8.333333 0.000000 -3.333334
v -8.333334 0.000000 -6.666667
v -7.074147 0.000000 6.666666
v -6.877010 0.000000 3.333333
v -6.741207 0.000000 -0.000000
v -6.561758 0.000000 -3.333334
v -6.666666 0.000000 -6.666667
v -3.699567 0.000000 6.666666
v -3.677099 0.000000 3.333333
v -3.119342 0.000000 -0.000000
v -3.488095 0.000000 -3.333334
v -3.140148 0.000000 -6.666667
v -1.195861 0.000000 6.666666
v -2.125998 0.000000 3.333333
v -1.666667 0.000000 -0.000000
v -1.988444 0.000000 -3.333334
v -1.153196 0.000000 -6.666667
v 1.666667 0.000000 6.666666
v 1.666667 0.000000 3.333333
v 1.666667 0.000000 -0.000000
v 1.666666 0.000000 -3.333334
v 1.666666 0.000000 -6.666667
v 3.001694 0.000000 6.666666
v 3.013630 0.000000 3.333333
v 3.175056 0.000000 -0.000000
v 3.101894 0.000000 -3.333334
v 3.764550 0.000000 -6.666667
v 6.834110 0.000000 6.666666
v 6.666667 0.000000 3.333333
v 6.196070 0.000000 -0.000000
v 6.955781 0.000000 -3.333334
v 6.520306 0.000000 -6.666667
v 8.076987 0.000000 6.666666
v 8.660835 0.000000 3.333333
v 8.333334 0.000000 -0.000000
v 8.240233 0.000000 -3.333334
v 8.033165 0.000000 -6.666667
vt 0.083333 0.833333
vt 0.166667 0.833333
vt 0.166667 1.000000
vt 0.083333 1.000000
vt 0.333333 0.833333
vt 0.416667 0.833333
vt 0.416667 1.000000
vt 0.333333 1.000000
vt 0.583333 0.833333
vt 0.666667 0.833333
vt 0.666667 1.000000
vt 0.583333 1.000000
vt 0.833333 0.833333
vt 0.916667 0.833333
vt 0.916667 1.000000
vt 0.833333 1.000000
vt 0.833333 0.000000
vt 0.916667 0.000000
vt 0.916667 0.166667
vt 0.833333 0.166667
vt 0.916667 0.333333
vt 0.833333 0.333333
vt 0.916667 0.500000
vt 0.833333 0.500000
vt 0.916667 0.666667
vt 0.833333 0.666667
vt 0.583333 0.000000
vt 0.666667 0.000000
vt 0.666667 0.166667
vt 0.583333 0.166667
vt 0.666667 0.333333
vt 0.583333 0.333333
vt 0.666667 0.500000
vt 0.583333 0.500000
vt 0.666667 0.666667
vt 0.583333 0.666667
vt 0.333333 0.000000
vt 0.416667 0.000000
vt 0.416667 0.166667
vt 0.333333 0.166667
vt 0.416667 0.333333
vt 0.333333 0.333333
vt 0.416667 0.500000
vt 0.333333 0.500000
vt 0.416667 0.666667
vt 0.333333 0.666667
vt 0.083333 0.000000
vt 0.166667 0.000000
vt 0.166667 0.166667
vt 0.083333 0.166667
vt 0.166667 0.333333
vt 0.083333 0.333333
vt 0.166667 0.500000
vt 0.083333 0.500000
vt 0.166667 0.666667
vt 0.083333 0.666667
vn 0.0000 1.0000 0.0000
usemtl None
s off
f 21/1/1 26/2/1 15/3/1 16/4/1
f 31/5/1 36/6/1 13/7/1 14/8/1
f 41/9/1 46/10/1 11/11/1 12/12/1
f 51/13/1 56/14/1 9/15/1 10/16/1
f 7/17/1 8/18/1 52/19/1 47/20/1
f 47/20/1 52/19/1 53/21/1 48/22/1
f 48/22/1 53/21/1 54/23/1 49/24/1
f 49/24/1 54/23/1 55/25/1 50/26/1
f 50/26/1 55/25/1 56/14/1 51/13/1
f 5/27/1 6/28/1 42/29/1 37/30/1
f 37/30/1 42/29/1 43/31/1 38/32/1
f 38/32/1 43/31/1 44/33/1 39/34/1
f 39/34/1 44/33/1 45/35/1 40/36/1
f 40/36/1 45/35/1 46/10/1 41/9/1
f 3/37/1 4/38/1 32/39/1 27/40/1
f 27/40/1 32/39/1 33/41/1 28/42/1
f 28/42/1 33/41/1 34/43/1 29/44/1
f 29/44/1 34/43/1 35/45/1 30/46/1
f 30/46/1 35/45/1 36/6/1 31/5/1
f 1/47/1 2/48/1 22/49/1 17/50/1
f 17/50/1 22/49/1 23/51/1 18/52/1
f 18/52/1 23/51/1 24/53/1 19/54/1
f 19/54/1 24/53/1 25/55/1 20/56/1
f 20/56/1 25/55/1 26/2/1 21/1/1
g Plane.001
v 10.000000 0.000000 10.000000
v 10.000000 0.000000 -10.000000
v -6.666666 0.000000 10.000000
v -5.000000 0.000000 10.000000
v -1.666666 0.000000 10.000000
v 0.000001 0.000000 10.000000
v 3.333334 0.000000 10.000000
v 5.000000 0.000000 10.000000
v 8.333334 0.000000 10.000000
v 8.333333 0.000000 -10.000000
v 5.000000 0.000000 -10.000000
v 3.333333 0.000000 -10.000000
v -0.000001 0.000000 -10.000000
v -1.666667 0.000000 -10.000000
v -5.000000 0.000000 -10.000000
v -6.666667 0.000000 -10.000000
v 10.000000 0.000000 6.666666
v 10.000000 0.000000 3.333333
v 10.000000 0.000000 -0.000000
v 10.000000 0.000000 -3.333334
v 10.000000 0.000000 -6.666667
v -7.074147 0.000000 6.666666
v -6.877010 0.000000 3.333333
v -6.741207 0.000000 -0.000000
v -6.561758 0.000000 -3.333334
v -6.666666 0.000000 -6.666667
v -5.000000 0.000000 6.666666
v -5.000000 0.000000 3.333333
v -5.000000 0.000000 -0.000000
v -5.000000 0.000000 -3.333334
v -5.000000 0.000000 -6.666667
v -1.195861 0.000000 6.666666
v -2.125998 0.000000 3.333333
v -1.666667 0.000000 -0.000000
v -1.988444 0.000000 -3.333334
v -1.153196 0.000000 -6.666667
v 0.328512 0.000000 6.666666
v 0.348728 0.000000 3.333333
v 0.138415 0.000000 -0.000000
v -0.253431 0.000000 -3.333334
v 0.257720 0.000000 -6.666667
v 3.001694 0.000000 6.666666
v 3.013630 0.000000 3.333333
v 3.175056 0.000000 -0.000000
v 3.101894 0.000000 -3.333334
v 3.764550 0.000000 -6.666667
v 5.000000 0.000000 6.666666
v 5.000000 0.000000 3.333333
v 5.000000 0.000000 -0.000000
v 5.000000 0.000000 -3.333334
v 5.000000 0.000000 -6.666667
v 8.076987 0.000000 6.666666
v 8.660835 0.000000 3.333333
v 8.333334 0.000000 -0.000000
v 8.240233 0.000000 -3.333334
v 8.033165 0.000000 -6.666667
vt 0.916667 0.833333
vt 1.000000 0.833333
vt 1.000000 1.000000
vt 0.916667 1.000000
vt 0.166667 0.833333
vt 0.250000 0.833333
vt 0.250000 1.000000
vt 0.166667 1.000000
vt 0.416667 0.833333
vt 0.500000 0.833333
vt 0.500000 1.000000
vt 0.416667 1.000000
vt 0.666667 0.833333
vt 0.750000 0.833333
vt 0.750000 1.000000
vt 0.666667 1.000000
vt 0.666667 0.000000
vt 0.750000 0.000000
vt 0.750000 0.166667
vt 0.666667 0.166667
vt 0.750000 0.333333
vt 0.666667 0.333333
vt 0.750000 0.500000
vt 0.666667 0.500000
vt 0.750000 0.666667
vt 0.666667 0.666667
vt 0.416667 0.000000
vt 0.500000 0.000000
vt 0.500000 0.166667
vt 0.416667 0.166667
vt 0.500000 0.333333
vt 0.416667 0.333333
vt 0.500000 0.500000
vt 0.416667 0.500000
vt 0.500000 0.666667
vt 0.416667 0.666667
vt 0.166667 0.000000
vt 0.250000 0.000000
vt 0.250000 0.166667
vt 0.166667 0.166667
vt 0.250000 0.333333
vt 0.166667 0.333333
vt 0.250000 0.500000
vt 0.166667 0.500000
vt 0.250000 0.666667
vt 0.166667 0.666667
vt 0.916667 0.000000
vt 1.000000 0.000000
vt 1.000000 0.166667
vt 0.916667 0.166667
vt 1.000000 0.333333
vt 0.916667 0.333333
vt 1.000000 0.500000
vt 0.916667 0.500000
vt 1.000000 0.666667
vt 0.916667 0.666667
vn 0.0000 1.0000 0.0000
usemtl None
s off
f 112/57/2 77/58/2 58/59/2 66/60/2
f 82/61/2 87/62/2 71/63/2 72/64/2
f 92/65/2 97/66/2 69/67/2 70/68/2
f 102/69/2 107/70/2 67/71/2 68/72/2
f 63/73/2 64/74/2 103/75/2 98/76/2
f 98/76/2 103/75/2 104/77/2 99/78/2
f 99/78/2 104/77/2 105/79/2 100/80/2
f 100/80/2 105/79/2 106/81/2 101/82/2
f 101/82/2 106/81/2 107/70/2 102/69/2
f 61/83/2 62/84/2 93/85/2 88/86/2
f 88/86/2 93/85/2 94/87/2 89/88/2
f 89/88/2 94/87/2 95/89/2 90/90/2
f 90/90/2 95/89/2 96/91/2 91/92/2
f 91/92/2 96/91/2 97/66/2 92/65/2
f 59/93/2 60/94/2 83/95/2 78/96/2
f 78/96/2 83/95/2 84/97/2 79/98/2
f 79/98/2 84/97/2 85/99/2 80/100/2
f 80/100/2 85/99/2 86/101/2 81/102/2
f 81/102/2 86/101/2 87/62/2 82/61/2
f 65/103/2 57/104/2 73/105/2 108/106/2
f 108/106/2 73/105/2 74/107/2 109/108/2
f 109/108/2 74/107/2 75/109/2 110/110/2
f 110/110/2 75/109/2 76/111/2 111/112/2
f 111/112/2 76/111/2 77/58/2 112/57/2
g Plane.002
v -10.000000 0.000000 10.000000
v -10.000000 0.000000 -10.000000
v -8.333333 0.000000 10.000000
v -5.000000 0.000000 10.000000
v -3.333333 0.000000 10.000000
v 0.000001 0.000000 10.000000
v 1.666667 0.000000 10.000000
v 5.000000 0.000000 10.000000
v 6.666667 0.000000 10.000000
v 6.860843 0.000000 -10.000000
v 5.000000 0.000000 -10.000000
v 1.666666 0.000000 -10.000000
v -0.000001 0.000000 -10.000000
v -3.333334 0.000000 -10.000000
v -5.000000 0.000000 -10.000000
v -8.333334 0.000000 -10.000000
v -10.000000 0.000000 -6.666666
v -10.000000 0.000000 -3.333333
v -10.000000 0.000000 0.000000
v -10.000000 0.000000 3.333334
v -10.000000 0.000000 6.666667
v -8.333333 0.000000 6.666666
v -8.333333 0.000000 3.333333
v -8.333333 0.000000 -0.000000
v -8.333333 0.000000 -3.333334
v -8.333334 0.000000 -6.666667
v -5.000000 0.000000 6.666666
v -5.000000 0.000000 3.333333
v -5.000000 0.000000 -0.000000
v -5.000000 0.000000 -3.333334
v -5.000000 0.000000 -6.666667
v -3.699567 0.000000 6.666666
v -3.677099 0.000000 3.333333
v -3.119342 0.000000 -0.000000
v -3.488095 0.000000 -3.333334
v -3.140148 0.000000 -6.666667
v 0.328512 0.000000 6.666666
v 0.348728 0.000000 3.333333
v 0.138415 0.000000 -0.000000
v -0.253431 0.000000 -3.333334
v 0.257720 0.000000 -6.666667
v 1.666667 0.000000 6.666666
v 1.666667 0.000000 3.333333
v 1.666667 0.000000 -0.000000
v 1.666666 0.000000 -3.333334
v 1.666666 0.000000 -6.666667
v 5.000000 0.000000 6.666666
v 5.000000 0.000000 3.333333
v 5.000000 0.000000 -0.000000
v 5.000000 0.000000 -3.333334
v 5.000000 0.000000 -6.666667
v 6.834110 0.000000 6.666666
v 6.666667 0.000000 3.333333
v 6.196070 0.000000 -0.000000
v 6.955781 0.000000 -3.333334
v 6.520306 0.000000 -6.666667
vt 0.000000 0.833333
vt 0.083333 0.833333
vt 0.083333 1.000000
vt 0.000000 1.000000
vt 0.250000 0.833333
vt 0.333333 0.833333
vt 0.333333 1.000000
vt 0.250000 1.000000
vt 0.500000 0.833333
vt 0.583333 0.833333
vt 0.583333 1.000000
vt 0.500000 1.000000
vt 0.750000 0.833333
vt 0.833333 0.833333
vt 0.833333 1.000000
vt 0.750000 1.000000
vt 0.750000 0.000000
vt 0.833333 0.000000
vt 0.833333 0.166667
vt 0.750000 0.166667
vt 0.833333 0.333333
vt 0.750000 0.333333
vt 0.833333 0.500000
vt 0.750000 0.500000
vt 0.833333 0.666667
vt 0.750000 0.666667
vt 0.500000 0.000000
vt 0.583333 0.000000
vt 0.583333 0.166667
vt 0.500000 0.166667
vt 0.583333 0.333333
vt 0.500000 0.333333
vt 0.583333 0.500000
vt 0.500000 0.500000
vt 0.583333 0.666667
vt 0.500000 0.666667
vt 0.250000 0.000000
vt 0.333333 0.000000
vt 0.333333 0.166667
vt 0.250000 0.166667
vt 0.333333 0.333333
vt 0.250000 0.333333
vt 0.333333 0.500000
vt 0.250000 0.500000
vt 0.333333 0.666667
vt 0.250000 0.666667
vt 0.000000 0.000000
vt 0.083333 0.000000
vt 0.083333 0.166667
vt 0.000000 0.166667
vt 0.083333 0.333333
vt 0.000000 0.333333
vt 0.083333 0.500000
vt 0.000000 0.500000
vt 0.083333 0.666667
vt 0.000000 0.666667
vn 0.0000 1.0000 0.0000
usemtl None
s off
f 129/113/3 138/114/3 128/115/3 114/116/3
f 143/117/3 148/118/3 126/119/3 127/120/3
f 153/121/3 158/122/3 124/123/3 125/124/3
f 163/125/3 168/126/3 122/127/3 123/128/3
f 120/129/3 121/130/3 164/131/3 159/132/3
f 159/132/3 164/131/3 165/133/3 160/134/3
f 160/134/3 165/133/3 166/135/3 161/136/3
f 161/136/3 166/135/3 167/137/3 162/138/3
f 162/138/3 167/137/3 168/126/3 163/125/3
f 118/139/3 119/140/3 154/141/3 149/142/3
f 149/142/3 154/141/3 155/143/3 150/144/3
f 150/144/3 155/143/3 156/145/3 151/146/3
f 151/146/3 156/145/3 157/147/3 152/148/3
f 152/148/3 157/147/3 158/122/3 153/121/3
f 116/149/3 117/150/3 144/151/3 139/152/3
f 139/152/3 144/151/3 145/153/3 140/154/3
f 140/154/3 145/153/3 146/155/3 141/156/3
f 141/156/3 146/155/3 147/157/3 142/158/3
f 142/158/3 147/157/3 148/118/3 143/117/3
f 113/159/3 115/160/3 134/161/3 133/162/3
f 133/162/3 134/161/3 135/163/3 132/164/3
f 132/164/3 135/163/3 136/165/3 131/166/3
f 131/166/3 136/165/3 137/167/3 130/168/3
f 130/168/3 137/167/3 138/114/3 129/113/3
