# File produced by Open Asset Import Library (http://www.assimp.sf.net)
# (assimp v3.1.128981410)

mtllib Sickle_OBJ.mtl

# vertex positions
v 4.706990 70.341858 -14.486626
v -4.706990 70.341858 -14.486626
v -12.323060 70.341858 -8.953227
v -15.232140 70.341858 -0.000000
v -12.323060 70.341858 8.953227
v -4.706990 70.341858 14.486626
v 4.706990 70.341858 14.486626
v 12.323059 70.341858 8.953227
v 15.232140 70.341858 0.000000
v 12.323059 70.341858 -8.953227
v 12.323059 -53.452827 8.953227
v 4.706990 -53.452827 14.486626
v -4.706990 -53.452827 14.486626
v -12.323060 -53.452827 8.953227
v -15.232140 -53.452827 -0.000000
v -12.323060 -53.452827 -8.953227
v -4.706990 -53.452827 -14.486626
v 4.706990 -53.452827 -14.486626
v 12.323059 -53.452827 -8.953227
v 15.232140 -53.452827 0.000000
v 11.530350 70.212311 5.558663
v 11.530350 81.958466 3.269801
v -11.530350 81.958466 3.269801
v -11.530350 70.212311 5.558663
v 11.530350 70.212311 -5.558663
v 11.530350 81.958466 -3.269801
v -11.530350 70.212311 -5.558663
v -11.530350 81.958466 -3.269801
v -99.667328 238.576767 1.634901
v -99.667328 238.576767 -1.634901
v -99.048431 238.180222 -1.307921
v -99.048431 238.180222 1.307921
v -72.133698 252.977692 1.307921
v -76.885338 260.320160 1.961881
v -4.916476 92.716270 -1.307921
v -4.916476 92.716270 1.307921
v 15.321583 86.616791 -3.269801
v 15.321583 86.616791 3.269801
v 27.917950 115.318794 -1.307921
v 27.917950 115.318794 1.307921
v 40.046169 99.079994 -3.269801
v 40.046169 99.079994 3.269801
v 43.294930 133.915680 -1.307921
v 43.294930 133.915680 1.307921
v 62.185150 120.688606 -3.269801
v 62.185150 120.688606 3.269801
v 54.448532 156.691101 -1.307921
v 54.448532 156.691101 1.307921
v 76.118492 148.803879 -3.269801
v 76.118492 148.803879 3.269801
v 58.053787 178.909607 -1.307921
v 58.053787 178.909607 1.307921
v 81.114487 178.909607 -3.269801
v 81.114487 178.909607 3.269801
v 54.627720 202.920013 -1.307921
v 54.627720 202.920013 1.307921
v 76.297691 210.807251 -3.269801
v 76.297691 210.807251 3.269801
v 43.294930 225.874634 -1.307921
v 43.294930 225.874634 1.307921
v 62.185150 239.101715 -3.269801
v 62.185150 239.101715 3.269801
v 27.083847 241.108093 -1.307921
v 27.083847 241.108093 1.307921
v 39.244267 260.701996 -3.269801
v 39.244267 260.701996 3.269801
v 6.044423 255.676727 -1.307921
v 6.044423 255.676727 1.307921
v 11.772881 274.843689 -3.269801
v 11.772881 274.843689 3.269801
v -18.811878 261.446960 -1.307921
v -18.811878 261.446960 1.307921
v -18.900097 279.634949 -3.269801
v -18.900097 279.634949 3.269801
v -45.351822 261.439545 -1.307921
v -45.351822 261.439545 1.307921
v -49.667320 274.650452 -3.269801
v -49.667320 274.650452 3.269801
v -72.133698 252.977692 -1.307921
v -76.885338 260.320160 -1.961881

# UV coordinates
vt 0.549856 0.057744
vt 0.549856 0.092984
vt 0.528385 0.121494
vt 0.493645 0.132383
vt 0.458904 0.121494
vt 0.437434 0.092984
vt 0.437434 0.057744
vt 0.458904 0.029234
vt 0.493645 0.018344
vt 0.528385 0.029234
vt 0.323101 0.040395
vt 0.351910 0.019147
vt 0.387520 0.019147
vt 0.416329 0.040395
vt 0.427333 0.074775
vt 0.416329 0.109155
vt 0.387520 0.130403
vt 0.351910 0.130403
vt 0.323101 0.109155
vt 0.312097 0.074775
vt 0.466359 0.969190
vt 0.445891 0.928197
vt 0.523706 0.888159
vt 0.544173 0.929151
vt 0.393807 0.518091
vt 0.384949 0.562066
vt 0.359574 0.562079
vt 0.350670 0.518112
vt 0.285779 0.247136
vt 0.320459 0.276671
vt 0.264393 0.344510
vt 0.229714 0.314975
vt 0.997364 0.997746
vt 0.951769 0.989327
vt 0.951685 0.964853
vt 0.997221 0.956141
vt 0.373219 0.591409
vt 0.362087 0.591409
vt 0.362087 0.588586
vt 0.373219 0.588586
vt 0.544413 0.195852
vt 0.428251 0.193961
vt 0.431149 0.160413
vt 0.545838 0.193123
vt 0.902723 0.972353
vt 0.902757 0.982142
vt 0.268519 0.367189
vt 0.336068 0.323116
vt 0.359586 0.584562
vt 0.384961 0.584550
vt 0.482685 0.862184
vt 0.425067 0.918971
vt 0.748109 0.972847
vt 0.748143 0.982636
vt 0.244058 0.470569
vt 0.320936 0.475412
vt 0.453891 0.367646
vt 0.349156 0.367646
vt 0.349156 0.342535
vt 0.453891 0.342535
vt 0.333129 0.842580
vt 0.320325 0.919691
vt 0.654507 0.973144
vt 0.654540 0.982934
vt 0.252147 0.589080
vt 0.336861 0.566654
vt 0.586548 0.636686
vt 0.586548 0.752493
vt 0.561173 0.752493
vt 0.561173 0.636686
vt 0.249203 0.806124
vt 0.208457 0.884792
vt 0.556118 0.973454
vt 0.556151 0.983246
vt 0.298947 0.699810
vt 0.375099 0.655966
vt 0.586548 0.519225
vt 0.561173 0.519225
vt 0.172194 0.748045
vt 0.112842 0.813383
vt 0.468773 0.973727
vt 0.468805 0.983521
vt 0.373300 0.789451
vt 0.430175 0.721886
vt 0.586548 0.404988
vt 0.561173 0.404988
vt 0.121455 0.678627
vt 0.043720 0.719518
vt 0.374640 0.974019
vt 0.374673 0.983814
vt 0.476829 0.855021
vt 0.507618 0.771825
vt 0.586548 0.284229
vt 0.561173 0.284229
vt 0.091128 0.590725
vt 0.004320 0.602271
vt 0.275267 0.974323
vt 0.275299 0.984119
vt 0.592826 0.884612
vt 0.601440 0.796170
vt 0.586548 0.165866
vt 0.561173 0.165866
vt 0.089080 0.492442
vt 0.002277 0.480870
vt 0.188907 0.974585
vt 0.188939 0.984382
vt 0.711356 0.871892
vt 0.685114 0.787107
vt 0.586548 0.047911
vt 0.561173 0.047911
vt 0.116780 0.411782
vt 0.041405 0.366576
vt 0.089565 0.974884
vt 0.089596 0.984681
vt 0.819714 0.827434
vt 0.778801 0.762376
vt 0.543226 0.614299
vt 0.542889 0.729961
vt 0.517514 0.729892
vt 0.517851 0.614230
vt 0.161791 0.324784
vt 0.108677 0.269554
vt 0.811560 0.496535
vt 0.908084 0.496535
vt 0.908084 0.506580
vt 0.811560 0.506580
vt 0.909306 0.750370
vt 0.856784 0.704636
vt 0.543565 0.498086
vt 0.518190 0.498018
vt 0.234903 0.260816
vt 0.202968 0.198499
vt 0.711169 0.496535
vt 0.711169 0.506580
vt 0.971372 0.648619
vt 0.922491 0.627589
vt 0.543905 0.381411
vt 0.518530 0.381342
vt 0.323749 0.213378
vt 0.314691 0.160274
vt 0.604927 0.496535
vt 0.604927 0.506580
vt 0.997723 0.533471
vt 0.964885 0.528704
vt 0.539165 0.266250
vt 0.523940 0.266209
vt 0.364290 0.396124
vt 0.363972 0.514065
vt 0.354077 0.514037
vt 0.354395 0.396097
vt 0.992446 0.412667
vt 0.989504 0.413455
vt 0.393820 0.392661
vt 0.393820 0.513584
vt 0.380216 0.513584
vt 0.380216 0.392661
vt 0.935864 0.475452
vt 0.935864 0.012039
vt 0.972393 0.012039
vt 0.972393 0.475452
vt 0.710081 0.476720
vt 0.710081 0.013307
vt 0.746610 0.013307
vt 0.746610 0.476720
vt 0.899336 0.475452
vt 0.899336 0.012039
vt 0.600497 0.476720
vt 0.600497 0.013307
vt 0.637025 0.013307
vt 0.637025 0.476720
vt 0.673553 0.476720
vt 0.673553 0.013307
vt 0.862808 0.475452
vt 0.862808 0.012039
vt 0.783138 0.013307
vt 0.783138 0.476720
vt 0.789752 0.475452
vt 0.789752 0.012039
vt 0.826280 0.012039
vt 0.826280 0.475452

# vertex normals
vn 0.000000 1.000000 0.000000
vn 0.000000 -1.000000 0.000000
vn 0.000000 0.191263 0.981539
vn -0.008725 0.146027 0.989242
vn 1.000000 0.000000 0.000000
vn 0.942231 -0.334965 0.000000
vn 0.000000 0.191263 -0.981539
vn -0.019428 0.156520 -0.987484
vn -1.000000 0.000000 0.000000
vn -0.962258 0.272138 0.000000
vn -0.539494 -0.841989 0.000000
vn 0.133195 -0.232787 0.963363
vn 0.079076 -0.170143 0.982242
vn -0.725132 0.688610 0.000000
vn -0.047166 0.106932 -0.993147
vn 0.626679 -0.779278 0.000000
vn -0.037427 0.099939 0.994289
vn -0.675312 0.737532 0.000000
vn -0.061917 0.077390 -0.995076
vn 0.581110 -0.813825 0.000000
vn -0.062071 0.080633 0.994809
vn -0.840198 0.542279 0.000000
vn -0.072535 0.050130 -0.996105
vn 0.808726 -0.588185 0.000000
vn -0.071705 0.049829 0.996180
vn -0.952904 0.303274 0.000000
vn -0.080856 0.025875 -0.996390
vn 0.951636 -0.307226 0.000000
vn -0.080806 0.025860 0.996394
vn -0.999954 0.009564 0.000000
vn -0.085054 0.000720 -0.996376
vn 0.999973 -0.007287 0.000000
vn -0.085088 0.000709 0.996373
vn -0.955287 -0.295679 0.000000
vn -0.080861 -0.025254 -0.996405
vn 0.953465 0.301505 0.000000
vn -0.080943 -0.025271 0.996398
vn -0.803563 -0.595219 0.000000
vn -0.067939 -0.050520 -0.996409
vn 0.802647 0.596455 0.000000
vn -0.067954 -0.050523 0.996408
vn -0.628775 -0.777587 0.000000
vn -0.053086 -0.071031 -0.996060
vn 0.577249 0.816568 0.000000
vn -0.053975 -0.071505 0.995979
vn -0.404901 -0.914361 0.000000
vn -0.033165 -0.090171 -0.995374
vn 0.309984 0.950742 0.000000
vn -0.034371 -0.091172 0.995242
vn -0.113666 -0.993519 0.000000
vn -0.004056 -0.112392 -0.993656
vn -0.002829 0.999996 0.000000
vn -0.005680 -0.114705 0.993383
vn 0.152556 -0.988295 0.000000
vn 0.015982 -0.117398 -0.992956
vn -0.317049 0.948409 0.000000
vn 0.016546 -0.116667 0.993033
vn 0.393427 -0.919356 0.000000
vn 0.091401 -0.151335 -0.984248
vn -0.583758 0.811928 0.000000
vn 0.481778 -0.876294 0.000000
vn 0.161554 -0.190326 -0.968337
vn -0.690425 0.723404 0.000000
vn 0.809017 0.000000 -0.587785
vn -0.309017 0.000000 0.951057
vn -0.809017 0.000000 0.587785
vn 0.309017 0.000000 -0.951057
vn 0.809017 0.000000 0.587785
vn 0.309017 0.000000 0.951057
vn -0.309017 0.000000 -0.951057
vn -0.809017 0.000000 -0.587785

# Mesh
g Sickel
usemtl DefaultMaterial
f 8/8/1 9/9/1 10/10/1 1/1/1 2/2/1 3/3/1 4/4/1 5/5/1 6/6/1 7/7/1
f 20/20/2 11/11/2 12/12/2 13/13/2 14/14/2 15/15/2 16/16/2 17/17/2 18/18/2 19/19/2
f 21/21/3 22/22/4 23/23/4 24/24/3
f 26/26/6 22/27/6 21/28/5 25/25/5
f 26/31/8 25/32/7 27/29/7 28/30/8
f 23/34/10 28/35/10 27/36/9 24/33/9
f 31/39/11 32/40/11 29/37/11 30/38/11
f 33/42/13 34/43/13 29/44/12 32/41/12
f 36/46/14 35/45/14 28/35/10 23/34/10
f 37/47/15 26/31/8 28/30/8 35/48/15
f 37/50/16 38/49/16 22/27/6 26/26/6
f 22/22/4 38/52/17 36/51/17 23/23/4
f 40/54/18 39/53/18 35/45/14 36/46/14
f 39/56/19 41/55/19 37/47/15 35/48/15
f 41/60/20 42/57/20 38/58/16 37/59/16
f 42/62/21 40/61/21 36/51/17 38/52/17
f 44/64/22 43/63/22 39/53/18 40/54/18
f 43/66/23 45/65/23 41/55/19 39/56/19
f 45/70/24 46/67/24 42/68/20 41/69/20
f 46/72/25 44/71/25 40/61/21 42/62/21
f 48/74/26 47/73/26 43/63/22 44/64/22
f 49/75/27 45/65/23 43/66/23 47/76/27
f 49/78/28 50/77/28 46/67/24 45/70/24
f 46/72/25 50/80/29 48/79/29 44/71/25
f 52/82/30 51/81/30 47/73/26 48/74/26
f 53/83/31 49/75/27 47/76/27 51/84/31
f 53/86/32 54/85/32 50/77/28 49/78/28
f 50/80/29 54/88/33 52/87/33 48/79/29
f 51/81/30 52/82/30 56/90/34 55/89/34
f 57/91/35 53/83/31 51/84/31 55/92/35
f 54/85/32 53/86/32 57/94/36 58/93/36
f 54/88/33 58/96/37 56/95/37 52/87/33
f 55/89/34 56/90/34 60/98/38 59/97/38
f 61/99/39 57/91/35 55/92/35 59/100/39
f 58/93/36 57/94/36 61/102/40 62/101/40
f 58/96/37 62/104/41 60/103/41 56/95/37
f 59/97/38 60/98/38 64/106/42 63/105/42
f 61/99/39 59/100/39 63/108/43 65/107/43
f 62/101/40 61/102/40 65/110/44 66/109/44
f 60/103/41 62/104/41 66/112/45 64/111/45
f 63/105/42 64/106/42 68/114/46 67/113/46
f 65/107/43 63/108/43 67/116/47 69/115/47
f 66/118/44 65/119/44 69/120/48 70/117/48
f 64/111/45 66/112/45 70/122/49 68/121/49
f 67/124/46 68/125/46 72/126/50 71/123/50
f 69/115/47 67/116/47 71/128/51 73/127/51
f 70/117/48 69/120/48 73/130/52 74/129/52
f 68/121/49 70/122/49 74/132/53 72/131/53
f 71/123/50 72/126/50 76/134/54 75/133/54
f 73/127/51 71/128/51 75/136/55 77/135/55
f 74/129/52 73/130/52 77/138/56 78/137/56
f 72/131/53 74/132/53 78/140/57 76/139/57
f 75/133/54 76/134/54 33/142/58 79/141/58
f 77/135/55 75/136/55 79/144/59 80/143/59
f 78/137/56 77/138/56 80/146/60 34/145/60
f 76/139/57 78/140/57 34/43/13 33/42/13
f 79/148/58 33/149/58 32/150/61 31/147/61
f 80/143/59 79/144/59 31/152/62 30/151/62
f 34/154/60 80/155/60 30/156/63 29/153/63
f 9/159/5 20/160/5 19/157/64 10/158/64
f 13/161/65 6/162/65 5/163/66 14/164/66
f 10/158/64 19/157/64 18/165/67 1/166/67
f 20/167/5 9/168/5 8/169/68 11/170/68
f 12/171/69 7/172/69 6/162/65 13/161/65
f 1/166/67 18/165/67 17/173/70 2/174/70
f 14/164/66 5/163/66 4/175/9 15/176/9
f 3/179/71 16/180/71 15/177/9 4/178/9
f 2/174/70 17/173/70 16/180/71 3/179/71
f 11/170/68 8/169/68 7/172/69 12/171/69
