# Blender v3.1.2 OBJ File: ''
# www.blender.org
mtllib untitled14.mtl
o Cube.011_Cube.018
v -0.129957 0.905617 2.714467
v -0.147698 0.357255 2.488015
v -0.129450 -0.070741 5.078715
v -0.147191 -0.619102 4.852264
v 0.174963 0.897212 2.710930
v 0.157222 0.348851 2.484478
v 0.175470 -0.079146 5.075179
v 0.157729 -0.627507 4.848727
v -0.154843 0.455434 -2.485093
v -0.154843 1.048978 -2.485093
v -0.154843 0.455433 -5.043011
v -0.154843 1.048978 -5.043012
v 0.150214 0.455434 -2.485093
v 0.150214 1.048978 -2.485093
v 0.150214 0.455433 -5.043012
v 0.150214 1.048978 -5.043012
v -0.154842 -0.691717 -2.485093
v -0.154843 -0.098172 -2.485093
v -0.154843 -0.691717 -5.043012
v -0.154843 -0.098172 -5.043012
v 0.150214 -0.691717 -2.485093
v 0.150214 -0.098172 -2.485093
v 0.150214 -0.691717 -5.043012
v 0.150214 -0.098172 -5.043012
v -0.129957 0.293893 -2.446813
v -0.147698 0.851321 -2.649923
v -0.129450 -0.581799 -4.850167
v -0.147191 -0.024371 -5.053277
v 0.174963 0.302481 -2.449878
v 0.157222 0.859909 -2.652988
v 0.175470 -0.573211 -4.853232
v 0.157729 -0.015783 -5.056342
v -0.154843 -1.503941 -2.499681
v -0.154843 -1.503941 -1.906137
v -0.154843 1.053977 -2.499682
v -0.154843 1.053977 -1.906137
v 0.150214 -1.503941 -2.499681
v 0.150214 -1.503941 -1.906137
v 0.150214 1.053977 -2.499681
v 0.150214 1.053977 -1.906137
v -0.154843 -1.503941 -5.638098
v -0.154843 -1.503941 -5.044554
v -0.154843 1.053978 -5.638098
v -0.154843 1.053978 -5.044554
v 0.150214 -1.503941 -5.638098
v 0.150214 -1.503941 -5.044553
v 0.150214 1.053977 -5.638098
v 0.150214 1.053978 -5.044554
v -0.154843 0.455434 1.278481
v -0.154843 1.048978 1.278481
v -0.154843 0.455434 -1.279437
v -0.154843 1.048978 -1.279438
v 0.150214 0.455434 1.278481
v 0.150214 1.048978 1.278481
v 0.150214 0.455434 -1.279438
v 0.150214 1.048978 -1.279438
v -0.154842 -0.691717 1.278481
v -0.154843 -0.098172 1.278481
v -0.154843 -0.691717 -1.279437
v -0.154843 -0.098172 -1.279438
v 0.150214 -0.691717 1.278481
v 0.150214 -0.098172 1.278481
v 0.150214 -0.691717 -1.279438
v 0.150214 -0.098172 -1.279438
v -0.154843 -1.503941 1.263893
v -0.154843 -1.503941 1.857437
v -0.154843 1.053977 1.263893
v -0.154842 1.053977 1.857437
v 0.150214 -1.503941 1.263893
v 0.150214 -1.503941 1.857437
v 0.150214 1.053978 1.263893
v 0.150214 1.053977 1.857437
v -0.154843 -1.503941 -1.874524
v -0.154843 -1.503941 -1.280979
v -0.154843 1.053977 -1.874524
v -0.154843 1.053977 -1.280979
v 0.150214 -1.503941 -1.874524
v 0.150214 -1.503941 -1.280980
v 0.150214 1.053977 -1.874524
v 0.150214 1.053977 -1.280980
v -0.154843 0.455434 5.048080
v -0.154843 1.048978 5.048080
v -0.154843 0.455434 2.490161
v -0.154843 1.048978 2.490161
v 0.150214 0.455434 5.048080
v 0.150214 1.048978 5.048080
v 0.150214 0.455434 2.490161
v 0.150214 1.048979 2.490161
v -0.154843 -0.691717 5.048080
v -0.154843 -0.098172 5.048080
v -0.154843 -0.691717 2.490162
v -0.154843 -0.098172 2.490162
v 0.150214 -0.691717 5.048080
v 0.150214 -0.098172 5.048080
v 0.150214 -0.691716 2.490162
v 0.150214 -0.098172 2.490162
v -0.154842 -1.503941 5.033491
v -0.154843 -1.503941 5.627036
v -0.154842 1.053978 5.033491
v -0.154842 1.053978 5.627035
v 0.150214 -1.503941 5.033491
v 0.150214 -1.503941 5.627035
v 0.150214 1.053978 5.033491
v 0.150214 1.053978 5.627036
v -0.154842 -1.503941 1.895075
v -0.154843 -1.503941 2.488620
v -0.154843 1.053978 1.895075
v -0.154842 1.053978 2.488619
v 0.150214 -1.503941 1.895075
v 0.150214 -1.503941 2.488620
v 0.150214 1.053978 1.895075
v 0.150214 1.053978 2.488619
vt 0.375000 0.000000
vt 0.625000 0.000000
vt 0.625000 0.250000
vt 0.375000 0.250000
vt 0.625000 0.500000
vt 0.375000 0.500000
vt 0.625000 0.750000
vt 0.375000 0.750000
vt 0.625000 1.000000
vt 0.375000 1.000000
vt 0.125000 0.500000
vt 0.125000 0.750000
vt 0.875000 0.500000
vt 0.875000 0.750000
vt 0.375000 0.000000
vt 0.625000 0.000000
vt 0.625000 0.250000
vt 0.375000 0.250000
vt 0.625000 0.500000
vt 0.375000 0.500000
vt 0.625000 0.750000
vt 0.375000 0.750000
vt 0.625000 1.000000
vt 0.375000 1.000000
vt 0.125000 0.500000
vt 0.125000 0.750000
vt 0.875000 0.500000
vt 0.875000 0.750000
vt 0.375000 0.000000
vt 0.625000 0.000000
vt 0.625000 0.250000
vt 0.375000 0.250000
vt 0.625000 0.500000
vt 0.375000 0.500000
vt 0.625000 0.750000
vt 0.375000 0.750000
vt 0.625000 1.000000
vt 0.375000 1.000000
vt 0.125000 0.500000
vt 0.125000 0.750000
vt 0.875000 0.500000
vt 0.875000 0.750000
vt 0.375000 0.000000
vt 0.625000 0.000000
vt 0.625000 0.250000
vt 0.375000 0.250000
vt 0.625000 0.500000
vt 0.375000 0.500000
vt 0.625000 0.750000
vt 0.375000 0.750000
vt 0.625000 1.000000
vt 0.375000 1.000000
vt 0.125000 0.500000
vt 0.125000 0.750000
vt 0.875000 0.500000
vt 0.875000 0.750000
vt 0.375000 0.000000
vt 0.625000 0.000000
vt 0.625000 0.250000
vt 0.375000 0.250000
vt 0.625000 0.500000
vt 0.375000 0.500000
vt 0.625000 0.750000
vt 0.375000 0.750000
vt 0.625000 1.000000
vt 0.375000 1.000000
vt 0.125000 0.500000
vt 0.125000 0.750000
vt 0.875000 0.500000
vt 0.875000 0.750000
vt 0.375000 0.000000
vt 0.625000 0.000000
vt 0.625000 0.250000
vt 0.375000 0.250000
vt 0.625000 0.500000
vt 0.375000 0.500000
vt 0.625000 0.750000
vt 0.375000 0.750000
vt 0.625000 1.000000
vt 0.375000 1.000000
vt 0.125000 0.500000
vt 0.125000 0.750000
vt 0.875000 0.500000
vt 0.875000 0.750000
vt 0.375000 0.000000
vt 0.625000 0.000000
vt 0.625000 0.250000
vt 0.375000 0.250000
vt 0.625000 0.500000
vt 0.375000 0.500000
vt 0.625000 0.750000
vt 0.375000 0.750000
vt 0.625000 1.000000
vt 0.375000 1.000000
vt 0.125000 0.500000
vt 0.125000 0.750000
vt 0.875000 0.500000
vt 0.875000 0.750000
vt 0.375000 0.000000
vt 0.625000 0.000000
vt 0.625000 0.250000
vt 0.375000 0.250000
vt 0.625000 0.500000
vt 0.375000 0.500000
vt 0.625000 0.750000
vt 0.375000 0.750000
vt 0.625000 1.000000
vt 0.375000 1.000000
vt 0.125000 0.500000
vt 0.125000 0.750000
vt 0.875000 0.500000
vt 0.875000 0.750000
vt 0.375000 0.000000
vt 0.625000 0.000000
vt 0.625000 0.250000
vt 0.375000 0.250000
vt 0.625000 0.500000
vt 0.375000 0.500000
vt 0.625000 0.750000
vt 0.375000 0.750000
vt 0.625000 1.000000
vt 0.375000 1.000000
vt 0.125000 0.500000
vt 0.125000 0.750000
vt 0.875000 0.500000
vt 0.875000 0.750000
vt 0.375000 0.000000
vt 0.625000 0.000000
vt 0.625000 0.250000
vt 0.375000 0.250000
vt 0.625000 0.500000
vt 0.375000 0.500000
vt 0.625000 0.750000
vt 0.375000 0.750000
vt 0.625000 1.000000
vt 0.375000 1.000000
vt 0.125000 0.500000
vt 0.125000 0.750000
vt 0.875000 0.500000
vt 0.875000 0.750000
vt 0.375000 0.000000
vt 0.625000 0.000000
vt 0.625000 0.250000
vt 0.375000 0.250000
vt 0.625000 0.500000
vt 0.375000 0.500000
vt 0.625000 0.750000
vt 0.375000 0.750000
vt 0.625000 1.000000
vt 0.375000 1.000000
vt 0.125000 0.500000
vt 0.125000 0.750000
vt 0.875000 0.500000
vt 0.875000 0.750000
vt 0.375000 0.000000
vt 0.625000 0.000000
vt 0.625000 0.250000
vt 0.375000 0.250000
vt 0.625000 0.500000
vt 0.375000 0.500000
vt 0.625000 0.750000
vt 0.375000 0.750000
vt 0.625000 1.000000
vt 0.375000 1.000000
vt 0.125000 0.500000
vt 0.125000 0.750000
vt 0.875000 0.500000
vt 0.875000 0.750000
vt 0.375000 0.000000
vt 0.625000 0.000000
vt 0.625000 0.250000
vt 0.375000 0.250000
vt 0.625000 0.500000
vt 0.375000 0.500000
vt 0.625000 0.750000
vt 0.375000 0.750000
vt 0.625000 1.000000
vt 0.375000 1.000000
vt 0.125000 0.500000
vt 0.125000 0.750000
vt 0.875000 0.500000
vt 0.875000 0.750000
vt 0.375000 0.000000
vt 0.625000 0.000000
vt 0.625000 0.250000
vt 0.375000 0.250000
vt 0.625000 0.500000
vt 0.375000 0.500000
vt 0.625000 0.750000
vt 0.375000 0.750000
vt 0.625000 1.000000
vt 0.375000 1.000000
vt 0.125000 0.500000
vt 0.125000 0.750000
vt 0.875000 0.500000
vt 0.875000 0.750000
vn -0.9996 0.0276 0.0116
vn 0.0002 -0.3817 0.9243
vn 0.9996 -0.0276 -0.0116
vn -0.0002 0.3817 -0.9243
vn 0.0299 0.9239 0.3815
vn -0.0299 -0.9239 -0.3815
vn -1.0000 -0.0000 0.0000
vn 0.0000 -0.0000 -1.0000
vn 1.0000 0.0000 -0.0000
vn -0.0000 0.0000 1.0000
vn 0.0000 -1.0000 0.0000
vn -0.0000 1.0000 -0.0000
vn -0.9996 -0.0282 0.0100
vn 0.0002 -0.3423 -0.9396
vn 0.9996 0.0282 -0.0100
vn -0.0002 0.3423 0.9396
vn 0.0299 -0.9392 0.3422
vn -0.0299 0.9392 -0.3422
usemtl None
s off
f 1/1/1 2/2/1 4/3/1 3/4/1
f 3/4/2 4/3/2 8/5/2 7/6/2
f 7/6/3 8/5/3 6/7/3 5/8/3
f 5/8/4 6/7/4 2/9/4 1/10/4
f 3/11/5 7/6/5 5/8/5 1/12/5
f 8/5/6 4/13/6 2/14/6 6/7/6
f 9/15/7 10/16/7 12/17/7 11/18/7
f 11/18/8 12/17/8 16/19/8 15/20/8
f 15/20/9 16/19/9 14/21/9 13/22/9
f 13/22/10 14/21/10 10/23/10 9/24/10
f 11/25/11 15/20/11 13/22/11 9/26/11
f 16/19/12 12/27/12 10/28/12 14/21/12
f 17/29/7 18/30/7 20/31/7 19/32/7
f 19/32/8 20/31/8 24/33/8 23/34/8
f 23/34/9 24/33/9 22/35/9 21/36/9
f 21/36/10 22/35/10 18/37/10 17/38/10
f 19/39/11 23/34/11 21/36/11 17/40/11
f 24/33/12 20/41/12 18/42/12 22/35/12
f 25/43/13 26/44/13 28/45/13 27/46/13
f 27/46/14 28/45/14 32/47/14 31/48/14
f 31/48/15 32/47/15 30/49/15 29/50/15
f 29/50/16 30/49/16 26/51/16 25/52/16
f 27/53/17 31/48/17 29/50/17 25/54/17
f 32/47/18 28/55/18 26/56/18 30/49/18
f 33/57/7 34/58/7 36/59/7 35/60/7
f 35/60/12 36/59/12 40/61/12 39/62/12
f 39/62/9 40/61/9 38/63/9 37/64/9
f 37/64/11 38/63/11 34/65/11 33/66/11
f 35/67/8 39/62/8 37/64/8 33/68/8
f 40/61/10 36/69/10 34/70/10 38/63/10
f 41/71/7 42/72/7 44/73/7 43/74/7
f 43/74/12 44/73/12 48/75/12 47/76/12
f 47/76/9 48/75/9 46/77/9 45/78/9
f 45/78/11 46/77/11 42/79/11 41/80/11
f 43/81/8 47/76/8 45/78/8 41/82/8
f 48/75/10 44/83/10 42/84/10 46/77/10
f 49/85/7 50/86/7 52/87/7 51/88/7
f 51/88/8 52/87/8 56/89/8 55/90/8
f 55/90/9 56/89/9 54/91/9 53/92/9
f 53/92/10 54/91/10 50/93/10 49/94/10
f 51/95/11 55/90/11 53/92/11 49/96/11
f 56/89/12 52/97/12 50/98/12 54/91/12
f 57/99/7 58/100/7 60/101/7 59/102/7
f 59/102/8 60/101/8 64/103/8 63/104/8
f 63/104/9 64/103/9 62/105/9 61/106/9
f 61/106/10 62/105/10 58/107/10 57/108/10
f 59/109/11 63/104/11 61/106/11 57/110/11
f 64/103/12 60/111/12 58/112/12 62/105/12
f 65/113/7 66/114/7 68/115/7 67/116/7
f 67/116/12 68/115/12 72/117/12 71/118/12
f 71/118/9 72/117/9 70/119/9 69/120/9
f 69/120/11 70/119/11 66/121/11 65/122/11
f 67/123/8 71/118/8 69/120/8 65/124/8
f 72/117/10 68/125/10 66/126/10 70/119/10
f 73/127/7 74/128/7 76/129/7 75/130/7
f 75/130/12 76/129/12 80/131/12 79/132/12
f 79/132/9 80/131/9 78/133/9 77/134/9
f 77/134/11 78/133/11 74/135/11 73/136/11
f 75/137/8 79/132/8 77/134/8 73/138/8
f 80/131/10 76/139/10 74/140/10 78/133/10
f 81/141/7 82/142/7 84/143/7 83/144/7
f 83/144/8 84/143/8 88/145/8 87/146/8
f 87/146/9 88/145/9 86/147/9 85/148/9
f 85/148/10 86/147/10 82/149/10 81/150/10
f 83/151/11 87/146/11 85/148/11 81/152/11
f 88/145/12 84/153/12 82/154/12 86/147/12
f 89/155/7 90/156/7 92/157/7 91/158/7
f 91/158/8 92/157/8 96/159/8 95/160/8
f 95/160/9 96/159/9 94/161/9 93/162/9
f 93/162/10 94/161/10 90/163/10 89/164/10
f 91/165/11 95/160/11 93/162/11 89/166/11
f 96/159/12 92/167/12 90/168/12 94/161/12
f 97/169/7 98/170/7 100/171/7 99/172/7
f 99/172/12 100/171/12 104/173/12 103/174/12
f 103/174/9 104/173/9 102/175/9 101/176/9
f 101/176/11 102/175/11 98/177/11 97/178/11
f 99/179/8 103/174/8 101/176/8 97/180/8
f 104/173/10 100/181/10 98/182/10 102/175/10
f 105/183/7 106/184/7 108/185/7 107/186/7
f 107/186/12 108/185/12 112/187/12 111/188/12
f 111/188/9 112/187/9 110/189/9 109/190/9
f 109/190/11 110/189/11 106/191/11 105/192/11
f 107/193/8 111/188/8 109/190/8 105/194/8
f 112/187/10 108/195/10 106/196/10 110/189/10
